<?xml version="1.0" encoding="UTF-8"?>
<!DOCTYPE svg PUBLIC "-//W3C//DTD SVG 1.1//EN" "http://www.w3.org/Graphics/SVG/1.1/DTD/svg11.dtd">
<!-- Creator: CorelDRAW -->
<svg xmlns="http://www.w3.org/2000/svg" xml:space="preserve" width="609px" height="115px" version="1.1" style="shape-rendering:geometricPrecision; text-rendering:geometricPrecision; image-rendering:optimizeQuality; fill-rule:evenodd; clip-rule:evenodd"
viewBox="0 0 513.16 97.22"
 xmlns:xlink="http://www.w3.org/1999/xlink"
 xmlns:xodm="http://www.corel.com/coreldraw/odm/2003">
 <defs>
  <style type="text/css">
   <![CDATA[
    .fil0 {fill:#B45309}
    .fil1 {fill:#0A0A0A;fill-rule:nonzero}
    .fil2 {fill:#B45309;fill-rule:nonzero}
   ]]>
  </style>
 </defs>
 <g id="Layer_x0020_1">
  <metadata id="CorelCorpID_0Corel-Layer"/>
  <rect class="fil0" x="181.59" width="16.83" height="97.22"/>
  <rect class="fil0" x="155.65" y="29.06" width="16.83" height="68.16"/>
  <rect class="fil0" x="129.71" y="44.49" width="16.83" height="52.73"/>
  <rect class="fil0" x="103.76" y="55.4" width="16.83" height="41.82"/>
  <rect class="fil0" x="77.82" y="63.8" width="16.83" height="33.42"/>
  <rect class="fil0" x="51.88" y="70.53" width="16.83" height="26.69"/>
  <rect class="fil0" x="25.94" y="76.04" width="16.83" height="21.18"/>
  <rect class="fil0" y="80.61" width="16.83" height="16.62"/>
  <g id="_1751939202480">
   <path class="fil1" d="M245.46 66.91c0,2.05 -0.45,3.91 -1.37,5.58 -0.91,1.66 -2.21,3.05 -3.88,4.15 -1.68,1.1 -3.68,1.86 -6.01,2.28 -0.65,0.1 -1.27,0.21 -1.86,0.32 -0.6,0.12 -1.21,0.22 -1.82,0.31 -0.6,0.08 -1.26,0.12 -1.98,0.12 -1.46,0 -2.8,-0.1 -4,-0.3 -1.21,-0.2 -2.29,-0.48 -3.24,-0.85 -0.95,-0.36 -1.81,-0.82 -2.57,-1.36l0.22 -1.76c0.65,0.48 1.39,0.88 2.19,1.2 0.81,0.33 1.67,0.57 2.58,0.72 0.91,0.14 1.87,0.22 2.87,0.22 2.9,0 5.18,-0.87 6.86,-2.6 1.67,-1.73 2.51,-4.32 2.51,-7.78 0,-2.64 -0.51,-4.99 -1.55,-7.04 -1.04,-2.05 -2.48,-3.67 -4.33,-4.83 -1.84,-1.16 -3.97,-1.74 -6.38,-1.74l-2.77 0 0 38.29c0,0.44 0.11,0.78 0.32,1.02 0.21,0.24 0.54,0.43 1,0.55l2.33 0.41c0.34,0.11 0.57,0.23 0.69,0.38 0.13,0.15 0.19,0.35 0.19,0.6 0,0.58 -0.39,0.88 -1.16,0.88l-15.94 0c-0.4,0 -0.69,-0.09 -0.88,-0.25 -0.19,-0.17 -0.29,-0.38 -0.29,-0.63 0,-0.48 0.3,-0.81 0.88,-0.98l2.14 -0.41c0.48,-0.12 0.84,-0.31 1.07,-0.55 0.23,-0.24 0.35,-0.58 0.35,-1.02l0 -36.53c0,-0.38 -0.12,-0.68 -0.36,-0.9 -0.24,-0.22 -0.6,-0.38 -1.06,-0.48l-2.14 -0.41c-0.58,-0.17 -0.88,-0.5 -0.88,-0.98 0,-0.27 0.1,-0.49 0.29,-0.65 0.19,-0.15 0.48,-0.23 0.88,-0.23l15.5 0c4.59,0 8.5,0.64 11.71,1.92 3.22,1.28 5.67,3.06 7.36,5.34 1.69,2.29 2.53,4.95 2.53,7.99zm-17.86 11.79l8.93 -1.01 8.58 13.96c0.4,0.67 0.83,1.16 1.28,1.45 0.45,0.29 1,0.52 1.64,0.69 0.42,0.13 0.72,0.26 0.88,0.41 0.15,0.15 0.23,0.35 0.23,0.6 0,0.25 -0.1,0.46 -0.3,0.63 -0.2,0.16 -0.5,0.25 -0.9,0.25l-13.9 0c-0.75,0 -1.13,-0.3 -1.13,-0.88 0,-0.19 0.05,-0.34 0.16,-0.44 0.1,-0.11 0.27,-0.21 0.5,-0.32l1.13 -0.25c0.47,-0.19 0.75,-0.43 0.84,-0.72 0.1,-0.3 -0.03,-0.74 -0.36,-1.32l-7.58 -13.05zm50.65 -0.57c0,0.7 -0.2,1.23 -0.6,1.62 -0.4,0.39 -0.98,0.59 -1.76,0.59l-19.55 0 0 -1.58 12.57 0c0.73,0 1.1,-0.35 1.1,-1.07 0,-3.2 -0.5,-5.6 -1.51,-7.19 -1,-1.58 -2.28,-2.36 -3.83,-2.36 -1.26,0 -2.35,0.39 -3.28,1.19 -0.94,0.8 -1.67,1.97 -2.2,3.53 -0.54,1.56 -0.81,3.49 -0.81,5.78 0,4.19 0.93,7.32 2.8,9.41 1.86,2.08 4.32,3.13 7.39,3.13 1.99,0 3.71,-0.48 5.14,-1.43 1.44,-0.96 2.4,-2.26 2.9,-3.91 0.21,-0.28 0.39,-0.46 0.53,-0.56 0.13,-0.09 0.27,-0.14 0.42,-0.14 0.21,0 0.36,0.09 0.47,0.27 0.1,0.17 0.15,0.42 0.12,0.71 -0.1,1.91 -0.71,3.64 -1.83,5.19 -1.12,1.55 -2.63,2.78 -4.53,3.71 -1.89,0.92 -4.05,1.38 -6.46,1.38 -2.83,0 -5.34,-0.61 -7.52,-1.81 -2.18,-1.21 -3.88,-2.89 -5.1,-5.07 -1.23,-2.18 -1.85,-4.73 -1.85,-7.64 0,-3.09 0.61,-5.81 1.82,-8.17 1.2,-2.36 2.91,-4.2 5.13,-5.53 2.23,-1.33 4.85,-1.99 7.89,-1.99 2.62,0 4.87,0.51 6.73,1.54 1.87,1.02 3.3,2.44 4.31,4.24 1.01,1.8 1.51,3.86 1.51,6.16zm30.09 -3.83c0,1.15 -0.37,2.09 -1.12,2.84 -0.74,0.74 -1.75,1.12 -3,1.12 -1.24,0 -2.2,-0.37 -2.9,-1.09 -0.69,-0.72 -1.03,-1.7 -1.03,-2.93l0 -1.58c0,-1.38 -0.39,-2.48 -1.18,-3.3 -0.78,-0.81 -1.86,-1.22 -3.22,-1.22 -1.3,0 -2.45,0.42 -3.43,1.25 -0.99,0.84 -1.76,2.03 -2.33,3.57 -0.56,1.54 -0.85,3.39 -0.85,5.55 0,2.68 0.43,4.95 1.28,6.79 0.85,1.85 2.01,3.24 3.49,4.19 1.48,0.96 3.16,1.44 5.04,1.44 1.85,0 3.45,-0.4 4.8,-1.18 1.35,-0.79 2.34,-1.95 2.97,-3.5 0.21,-0.26 0.39,-0.43 0.53,-0.54 0.15,-0.1 0.3,-0.15 0.44,-0.13 0.21,0 0.36,0.1 0.44,0.29 0.09,0.19 0.13,0.41 0.13,0.66 -0.25,1.93 -0.93,3.62 -2.04,5.1 -1.12,1.48 -2.57,2.64 -4.38,3.48 -1.8,0.84 -3.85,1.26 -6.16,1.26 -2.72,0 -5.14,-0.58 -7.27,-1.73 -2.13,-1.15 -3.8,-2.81 -5.03,-4.97 -1.23,-2.16 -1.85,-4.75 -1.85,-7.76 0,-2.98 0.63,-5.65 1.89,-8.02 1.26,-2.37 3.02,-4.24 5.28,-5.63 2.27,-1.38 4.91,-2.07 7.93,-2.07 2.43,0 4.51,0.36 6.24,1.1 1.73,0.73 3.05,1.71 3.96,2.93 0.91,1.23 1.37,2.59 1.37,4.08zm21.31 17.86l0 -0.48 -0.47 0.07 0 -19.43c0,-1.49 -0.34,-2.64 -1.04,-3.45 -0.69,-0.81 -1.67,-1.21 -2.95,-1.21 -1.28,0 -2.25,0.3 -2.91,0.89 -0.66,0.58 -0.99,1.27 -0.99,2.07l0 2.67c0,1.16 -0.4,2.08 -1.2,2.78 -0.79,0.7 -1.86,1.06 -3.2,1.06 -1.09,0 -1.94,-0.29 -2.55,-0.85 -0.61,-0.57 -0.91,-1.37 -0.91,-2.42 0,-1.22 0.5,-2.41 1.5,-3.59 0.99,-1.17 2.46,-2.14 4.4,-2.91 1.94,-0.76 4.32,-1.14 7.15,-1.14 3.66,0 6.4,0.75 8.2,2.26 1.8,1.51 2.71,3.59 2.71,6.23l0 16.31c0,0.68 0.12,1.16 0.36,1.46 0.24,0.3 0.57,0.46 0.99,0.46 0.42,0 0.76,-0.11 1.02,-0.33 0.27,-0.22 0.46,-0.52 0.58,-0.89 0.06,-0.11 0.14,-0.19 0.22,-0.26 0.09,-0.06 0.19,-0.09 0.32,-0.09 0.14,0 0.26,0.05 0.34,0.17 0.09,0.11 0.13,0.28 0.13,0.49 0,0.55 -0.22,1.15 -0.66,1.83 -0.44,0.69 -1.11,1.27 -2.01,1.76 -0.91,0.5 -2.06,0.75 -3.46,0.75 -1.78,0 -3.16,-0.39 -4.12,-1.15 -0.97,-0.77 -1.45,-1.79 -1.45,-3.06zm-17.67 -2.86c0,-2.46 1.07,-4.44 3.21,-5.95 2.14,-1.51 5.28,-2.26 9.43,-2.26 1.32,0 2.48,0.11 3.45,0.36 0.97,0.24 1.83,0.55 2.59,0.93l-0.47 1.22c-0.72,-0.33 -1.44,-0.6 -2.18,-0.8 -0.75,-0.2 -1.57,-0.3 -2.48,-0.3 -1.63,0 -2.91,0.49 -3.83,1.45 -0.92,0.96 -1.39,2.32 -1.39,4.06 0,1.69 0.42,2.98 1.25,3.87 0.83,0.89 1.89,1.34 3.19,1.34 1,0 1.99,-0.24 2.95,-0.71 0.97,-0.47 1.76,-1.13 2.39,-1.99l0.54 1.07c-1.05,1.53 -2.47,2.7 -4.25,3.53 -1.78,0.83 -3.69,1.25 -5.72,1.25 -2.58,0 -4.66,-0.66 -6.27,-1.97 -1.6,-1.31 -2.41,-3.01 -2.41,-5.1zm43.48 -21.29c-1.44,0 -2.57,0.37 -3.4,1.1 -0.83,0.73 -1.25,1.69 -1.25,2.86 0,0.78 0.18,1.47 0.52,2.09 0.35,0.62 0.97,1.18 1.87,1.7 0.9,0.51 2.18,1 3.84,1.46 2.89,0.74 5.14,1.6 6.74,2.58 1.61,0.99 2.73,2.11 3.38,3.38 0.65,1.26 0.97,2.69 0.97,4.26 0,2.79 -0.96,4.98 -2.9,6.57 -1.94,1.59 -4.65,2.39 -8.13,2.39 -1.34,0 -2.44,-0.13 -3.3,-0.38 -0.86,-0.25 -1.54,-0.49 -2.05,-0.72 -0.5,-0.23 -0.91,-0.35 -1.22,-0.35 -0.34,0 -0.69,0.12 -1.08,0.36 -0.39,0.24 -0.78,0.48 -1.15,0.72 -0.38,0.24 -0.72,0.37 -1.01,0.37 -0.21,0 -0.39,-0.07 -0.53,-0.21 -0.15,-0.14 -0.28,-0.39 -0.38,-0.76l-1.89 -7.55c-0.15,-0.48 -0.19,-0.88 -0.12,-1.18 0.06,-0.31 0.23,-0.51 0.5,-0.61 0.29,-0.13 0.55,-0.14 0.78,-0.02 0.23,0.11 0.45,0.32 0.63,0.62 1.05,1.95 2.13,3.5 3.23,4.65 1.1,1.15 2.24,1.98 3.43,2.48 1.18,0.51 2.43,0.76 3.75,0.76 1.68,0 2.97,-0.39 3.86,-1.16 0.89,-0.76 1.33,-1.77 1.33,-3.02 0,-0.8 -0.19,-1.52 -0.58,-2.17 -0.39,-0.65 -1.1,-1.25 -2.14,-1.8 -1.03,-0.54 -2.53,-1.05 -4.48,-1.54 -2.48,-0.6 -4.46,-1.38 -5.94,-2.31 -1.49,-0.94 -2.56,-2.04 -3.21,-3.3 -0.65,-1.27 -0.98,-2.71 -0.98,-4.32 0,-1.76 0.45,-3.3 1.35,-4.62 0.89,-1.32 2.1,-2.35 3.65,-3.07 1.55,-0.73 3.34,-1.08 5.35,-1.08 1.3,0 2.38,0.13 3.24,0.42 0.86,0.28 1.56,0.57 2.09,0.87 0.54,0.29 0.96,0.44 1.27,0.44 0.31,0 0.66,-0.15 1.03,-0.43 0.36,-0.29 0.73,-0.56 1.1,-0.83 0.36,-0.27 0.69,-0.41 0.98,-0.41 0.21,0 0.4,0.08 0.57,0.25 0.17,0.17 0.28,0.45 0.34,0.85l1.48 6.79c0.11,0.53 0.13,0.92 0.06,1.21 -0.06,0.28 -0.24,0.49 -0.53,0.61 -0.27,0.13 -0.51,0.12 -0.72,-0.03 -0.21,-0.14 -0.43,-0.38 -0.66,-0.72 -1.47,-2.62 -3.03,-4.48 -4.69,-5.56 -1.65,-1.09 -3.32,-1.64 -5,-1.64zm18.3 1.01l-2.04 -0.47c-0.32,-0.11 -0.54,-0.24 -0.67,-0.37 -0.14,-0.14 -0.21,-0.3 -0.21,-0.48 0,-0.26 0.09,-0.45 0.27,-0.6 0.18,-0.15 0.4,-0.22 0.67,-0.22l2.3 0c0.33,0 0.61,-0.06 0.84,-0.18 0.24,-0.11 0.47,-0.32 0.7,-0.64l4.62 -5.34c0.29,-0.34 0.57,-0.59 0.85,-0.76 0.27,-0.17 0.54,-0.25 0.81,-0.25 0.3,0 0.53,0.1 0.68,0.28 0.16,0.19 0.24,0.46 0.24,0.82l0 26.66c0,1.59 0.3,2.79 0.91,3.59 0.61,0.79 1.44,1.19 2.51,1.19 0.61,0 1.11,-0.11 1.51,-0.33 0.4,-0.22 0.75,-0.5 1.03,-0.83 0.28,-0.34 0.54,-0.68 0.78,-1.04 0.25,-0.36 0.5,-0.68 0.77,-0.97 0.19,-0.07 0.36,-0.05 0.5,0.07 0.15,0.11 0.21,0.34 0.19,0.68 -0.17,1.28 -0.6,2.4 -1.29,3.36 -0.69,0.97 -1.61,1.72 -2.77,2.27 -1.17,0.54 -2.53,0.81 -4.08,0.81 -2.58,0 -4.58,-0.62 -6.02,-1.88 -1.43,-1.26 -2.16,-3.17 -2.16,-5.72l0 -18.33c0,-0.38 -0.06,-0.67 -0.2,-0.87 -0.13,-0.2 -0.38,-0.35 -0.74,-0.45zm6.1 -0.13l0.13 -2.01 9.9 0c0.33,0 0.59,0.06 0.75,0.19 0.17,0.12 0.26,0.31 0.26,0.56 0,0.36 -0.18,0.65 -0.54,0.89 -0.36,0.25 -0.92,0.37 -1.7,0.37l-8.8 0z"/>
   <path class="fil2" d="M432.71 83.45c-0.1,1.72 -0.58,3.36 -1.42,4.94 -0.85,1.59 -2.03,3.01 -3.53,4.27 -1.5,1.26 -3.29,2.25 -5.36,2.99 -2.08,0.73 -4.39,1.1 -6.95,1.1 -4.38,0 -8.16,-0.97 -11.35,-2.89 -3.19,-1.91 -5.64,-4.56 -7.36,-7.96 -1.71,-3.4 -2.57,-7.33 -2.57,-11.79 0,-3.42 0.52,-6.55 1.56,-9.4 1.03,-2.85 2.49,-5.32 4.38,-7.42 1.88,-2.1 4.12,-3.72 6.69,-4.87 2.58,-1.16 5.4,-1.73 8.46,-1.73 2.06,0 3.75,0.21 5.09,0.64 1.35,0.43 2.39,0.86 3.14,1.29 0.74,0.43 1.27,0.65 1.58,0.65 0.4,0 0.79,-0.2 1.15,-0.6 0.37,-0.4 0.73,-0.8 1.08,-1.2 0.36,-0.4 0.72,-0.59 1.07,-0.59 0.23,0 0.43,0.07 0.6,0.23 0.17,0.15 0.3,0.44 0.41,0.84l3.21 11.53c0.1,0.34 0.08,0.63 -0.07,0.88 -0.14,0.25 -0.37,0.42 -0.69,0.51 -0.34,0.06 -0.63,0.02 -0.89,-0.13 -0.26,-0.15 -0.47,-0.4 -0.62,-0.75 -1.13,-2.71 -2.4,-4.87 -3.8,-6.48 -1.41,-1.61 -2.92,-2.78 -4.53,-3.49 -1.61,-0.71 -3.34,-1.07 -5.19,-1.07 -1.86,0 -3.58,0.42 -5.16,1.27 -1.59,0.85 -2.97,2.08 -4.14,3.7 -1.18,1.61 -2.08,3.56 -2.72,5.86 -0.64,2.29 -0.96,4.9 -0.96,7.81 0,4.51 0.65,8.29 1.95,11.37 1.3,3.07 3.09,5.38 5.37,6.94 2.29,1.56 4.9,2.35 7.83,2.35 2.96,0 5.48,-0.79 7.57,-2.35 2.08,-1.56 3.58,-3.74 4.5,-6.55 0.15,-0.31 0.31,-0.53 0.48,-0.65 0.16,-0.11 0.36,-0.14 0.59,-0.1 0.21,0.02 0.37,0.1 0.46,0.26 0.1,0.16 0.14,0.36 0.14,0.59zm21.51 8.71l0 -0.48 -0.48 0.07 0 -19.43c0,-1.49 -0.34,-2.64 -1.03,-3.45 -0.7,-0.81 -1.68,-1.21 -2.96,-1.21 -1.28,0 -2.24,0.3 -2.9,0.89 -0.66,0.58 -1,1.27 -1,2.07l0 2.67c0,1.16 -0.4,2.08 -1.19,2.78 -0.8,0.7 -1.87,1.06 -3.21,1.06 -1.09,0 -1.94,-0.29 -2.55,-0.85 -0.6,-0.57 -0.91,-1.37 -0.91,-2.42 0,-1.22 0.51,-2.41 1.5,-3.59 1,-1.17 2.46,-2.14 4.4,-2.91 1.94,-0.76 4.32,-1.14 7.15,-1.14 3.67,0 6.4,0.75 8.21,2.26 1.8,1.51 2.7,3.59 2.7,6.23l0 16.31c0,0.68 0.13,1.16 0.37,1.46 0.24,0.3 0.56,0.46 0.98,0.46 0.42,0 0.77,-0.11 1.03,-0.33 0.26,-0.22 0.45,-0.52 0.57,-0.89 0.07,-0.11 0.14,-0.19 0.22,-0.26 0.09,-0.06 0.19,-0.09 0.32,-0.09 0.15,0 0.26,0.05 0.34,0.17 0.09,0.11 0.13,0.28 0.13,0.49 0,0.55 -0.22,1.15 -0.66,1.83 -0.44,0.69 -1.11,1.27 -2.01,1.76 -0.9,0.5 -2.06,0.75 -3.46,0.75 -1.78,0 -3.15,-0.39 -4.12,-1.15 -0.96,-0.77 -1.44,-1.79 -1.44,-3.06zm-17.67 -2.86c0,-2.46 1.06,-4.44 3.2,-5.95 2.14,-1.51 5.28,-2.26 9.43,-2.26 1.33,0 2.48,0.11 3.45,0.36 0.98,0.24 1.84,0.55 2.59,0.93l-0.47 1.22c-0.71,-0.33 -1.44,-0.6 -2.18,-0.8 -0.74,-0.2 -1.57,-0.3 -2.47,-0.3 -1.64,0 -2.92,0.49 -3.84,1.45 -0.92,0.96 -1.38,2.32 -1.38,4.06 0,1.69 0.42,2.98 1.24,3.87 0.83,0.89 1.89,1.34 3.19,1.34 1.01,0 1.99,-0.24 2.96,-0.71 0.96,-0.47 1.76,-1.13 2.39,-1.99l0.53 1.07c-1.05,1.53 -2.46,2.7 -4.24,3.53 -1.79,0.83 -3.69,1.25 -5.73,1.25 -2.57,0 -4.66,-0.66 -6.26,-1.97 -1.61,-1.31 -2.41,-3.01 -2.41,-5.1zm43.6 -39.05l0 41.87c0,0.49 0.09,0.84 0.24,1.08 0.16,0.24 0.39,0.42 0.71,0.53l1.44 0.28c0.27,0.08 0.47,0.2 0.6,0.35 0.12,0.14 0.19,0.31 0.19,0.5 0,0.25 -0.09,0.45 -0.26,0.6 -0.18,0.14 -0.45,0.22 -0.81,0.22l-12.51 0c-0.36,0 -0.62,-0.08 -0.79,-0.22 -0.17,-0.15 -0.25,-0.35 -0.25,-0.6 0,-0.19 0.06,-0.36 0.19,-0.5 0.12,-0.15 0.33,-0.27 0.63,-0.35l1.44 -0.28c0.34,-0.11 0.58,-0.29 0.72,-0.53 0.15,-0.24 0.22,-0.58 0.22,-1.04l0 -37.61c0,-0.35 -0.05,-0.61 -0.16,-0.77 -0.12,-0.16 -0.32,-0.25 -0.59,-0.29l-1.82 -0.07c-0.25,-0.04 -0.43,-0.12 -0.55,-0.25 -0.11,-0.12 -0.18,-0.28 -0.18,-0.47 0,-0.23 0.08,-0.41 0.21,-0.53 0.14,-0.13 0.37,-0.26 0.71,-0.38l7.29 -2.3c0.52,-0.21 0.94,-0.35 1.25,-0.43 0.3,-0.07 0.56,-0.1 0.79,-0.1 0.44,0 0.77,0.11 0.98,0.35 0.21,0.25 0.31,0.56 0.31,0.94zm32.95 24.05c0,1.15 -0.37,2.09 -1.11,2.84 -0.74,0.74 -1.75,1.12 -3.01,1.12 -1.23,0 -2.2,-0.37 -2.89,-1.09 -0.69,-0.72 -1.04,-1.7 -1.04,-2.93l0 -1.58c0,-1.38 -0.39,-2.48 -1.17,-3.3 -0.79,-0.81 -1.87,-1.22 -3.23,-1.22 -1.3,0 -2.44,0.42 -3.43,1.25 -0.98,0.84 -1.76,2.03 -2.32,3.57 -0.57,1.54 -0.85,3.39 -0.85,5.55 0,2.68 0.43,4.95 1.28,6.79 0.85,1.85 2.01,3.24 3.49,4.19 1.47,0.96 3.15,1.44 5.04,1.44 1.84,0 3.45,-0.4 4.8,-1.18 1.35,-0.79 2.33,-1.95 2.96,-3.5 0.21,-0.26 0.39,-0.43 0.54,-0.54 0.14,-0.1 0.29,-0.15 0.44,-0.13 0.21,0 0.35,0.1 0.44,0.29 0.08,0.19 0.12,0.41 0.12,0.66 -0.25,1.93 -0.93,3.62 -2.04,5.1 -1.11,1.48 -2.57,2.64 -4.37,3.48 -1.8,0.84 -3.86,1.26 -6.16,1.26 -2.73,0 -5.15,-0.58 -7.28,-1.73 -2.12,-1.15 -3.8,-2.81 -5.03,-4.97 -1.22,-2.16 -1.84,-4.75 -1.84,-7.76 0,-2.98 0.63,-5.65 1.89,-8.02 1.25,-2.37 3.01,-4.24 5.28,-5.63 2.26,-1.38 4.9,-2.07 7.92,-2.07 2.43,0 4.52,0.36 6.25,1.1 1.73,0.73 3.05,1.71 3.96,2.93 0.91,1.23 1.36,2.59 1.36,4.08z"/>
  </g>
 </g>
</svg>
